inDegrees=no
num_controls=7
num_derivatives=13
num_iterations=173
num_multipliers=7
num_parameters=0
num_slacks=7
num_states=26
objective=5.600717
objective_accelerations=0.675072
objective_balance=0.043019
objective_effort=0.248547
objective_height=4.522463
objective_ligament=0.111616
solver_duration=1920.612830
status=Solve_Succeeded
success=true
DataType=double
version=3
OpenSimVersion=4.4-2022-07-23-0e9fedc
endheader
time	/jointset/ground_pelvis/pelvis_tilt/value	/jointset/ground_pelvis/pelvis_tx/value	/jointset/ground_pelvis/pelvis_ty/value	/jointset/hip_l/hip_flexion_l/value	/jointset/hip_l/hip_adduction_l/value	/jointset/hip_l/hip_rotation_l/value	/jointset/back/lumbar_extension/value	/jointset/patellofemoral_l/patellar_flexion_l/value	/jointset/knee_l/knee_flexion_l/value	/jointset/knee_l/knee_adduction_l/value	/jointset/knee_l/knee_rotation_l/value	/jointset/ankle_l/ankle_angle_l/value	/jointset/subtalar_l/subtalar_angle_l/value	/jointset/ground_pelvis/pelvis_tilt/speed	/jointset/ground_pelvis/pelvis_tx/speed	/jointset/ground_pelvis/pelvis_ty/speed	/jointset/hip_l/hip_flexion_l/speed	/jointset/hip_l/hip_adduction_l/speed	/jointset/hip_l/hip_rotation_l/speed	/jointset/back/lumbar_extension/speed	/jointset/patellofemoral_l/patellar_flexion_l/speed	/jointset/knee_l/knee_flexion_l/speed	/jointset/knee_l/knee_adduction_l/speed	/jointset/knee_l/knee_rotation_l/speed	/jointset/ankle_l/ankle_angle_l/speed	/jointset/subtalar_l/subtalar_angle_l/speed	/forceset/tau_hip_flexion_l	/forceset/tau_hip_adduction_l	/forceset/tau_hip_rotation_l	/forceset/tau_knee_flexion_l	/forceset/tau_ankle_angle_l	/forceset/tau_subtalar_angle_l	/forceset/tau_lumbar_extension	lambda_cid13_p0	lambda_cid13_p1	lambda_cid13_p2	lambda_cid13_p3	lambda_cid13_p4	lambda_cid13_p5	lambda_cid14_p0	/jointset/ground_pelvis/pelvis_tilt/accel	/jointset/ground_pelvis/pelvis_tx/accel	/jointset/ground_pelvis/pelvis_ty/accel	/jointset/hip_l/hip_flexion_l/accel	/jointset/hip_l/hip_adduction_l/accel	/jointset/hip_l/hip_rotation_l/accel	/jointset/back/lumbar_extension/accel	/jointset/patellofemoral_l/patellar_flexion_l/accel	/jointset/knee_l/knee_flexion_l/accel	/jointset/knee_l/knee_adduction_l/accel	/jointset/knee_l/knee_rotation_l/accel	/jointset/ankle_l/ankle_angle_l/accel	/jointset/subtalar_l/subtalar_angle_l/accel	gamma_cid13_p0	gamma_cid13_p1	gamma_cid13_p2	gamma_cid13_p3	gamma_cid13_p4	gamma_cid13_p5	gamma_cid14_p0
0	-0.04294391501316479	0.07042666889775878	0.8960897484725568	0.1955292361009247	-0.3205266266165752	-0.512504410332408	-0.137903700187828	0.0701535092839128	0.07015350928391206	-0.1745329251994329	-0.1455206820607408	-0.06701017130107029	0.005738785814300008	0	0	0	0	0	0	0	0	0	0	0	0	0	0.1109231206376129	-0.1341038837617861	-0.04037600807394733	-0.2751119366633317	0.2663312124556282	-0.01142396644841961	-0.04968089056934472	50.25346437699289	-7.06125395602622	4.47204060948302	-31.81891197857327	-516.8520772019272	-89.44420380646699	-40.68696824540151	-3.037793645329827	-0.8400380612673075	-0.8276265087114301	10.07705375644255	-2.340190595968383	3.667610902938226	-2.563466590820485	10.9350153057225	10.93501530572302	0.9646044449779335	-0.6004339494867401	4.110267778060981	-0.3231775516549205	-5.223016008125155e-08	1.511032232996814e-07	1.565219201204667e-07	2.977691497929404e-08	-3.710743962821584e-08	-8.097596459214064e-08	-6.359454469896239e-09
0.01	-0.0430871951520247	0.07038534525483384	0.8960496628623511	0.1960150567119389	-0.3206415208815767	-0.5123192813561022	-0.1380370154642642	0.07068524414864082	0.07068524414862735	-0.1744877277785186	-0.1455434436238769	-0.06681039295323404	0.00572175755448908	-0.0285136385029093	-0.008231625387180063	-0.007991834169134959	0.09673605099398526	-0.022858243963079	0.03687539476251302	-0.02643014547595001	0.105875262894929	0.1058752628949282	0.009023960975925416	-0.004518016442743753	0.03977781476070301	-0.003371978659156438	0.1063007270938265	-0.1333451068149609	-0.03930884635795151	-0.2681119672161363	0.2553646080758366	-0.007024738441183268	-0.04591167695186258	46.85485508425496	-8.380672108588666	4.686851470526414	-29.99040356357327	-517.7566659437817	-92.23789905147615	-40.69722979491814	-2.736805401937606	-0.8097533424631796	-0.7811761117011051	9.407654341362846	-2.240592803154659	3.674927102958335	-2.64785205424525	10.34302654583927	10.34302654583888	0.8687358004002141	-0.3723267274710521	3.884859249652176	-0.3391984845248285	-9.779310424931551e-08	2.005634243691309e-07	2.429624732912684e-07	7.298892506344785e-08	-2.566479825223356e-07	-1.445058476917502e-07	-9.656871689712959e-09
0.02	-0.04351134296574816	0.07026269964503301	0.8959304160623168	0.1974553925469931	-0.320981387887545	-0.5117699137641653	-0.1384276449011123	0.07226158059519942	0.07226158059519897	-0.1743527928647097	-0.1456103535986215	-0.06621817227287541	0.005672011415790856	-0.05617353497246275	-0.01626439337518123	-0.01583223796573885	0.1909030448074188	-0.04499454819323961	0.07284772312704431	-0.05146283208241495	0.208920316368305	0.2089203163683039	0.01794567701186669	-0.008829682317601539	0.07848846650449454	-0.006543575777465541	0.1016783335501003	-0.132586329868129	-0.03824168464183056	-0.2611119977689235	0.2443980036960616	-0.002625510433931732	-0.04214246333434808	43.52540068283792	-9.712831974476794	4.904419496044341	-28.39783817340407	-517.6915719291529	-94.84248816155012	-40.7274167228249	-2.867045238658626	-0.8002665814315545	-0.7973404342052161	9.563242320332215	-2.195802649384701	3.486997623341876	-2.283974816923452	10.3689734214119	10.36897342141253	0.944155456981111	-0.5591638359095523	3.896835174678655	-0.2831012434854667	-1.433560484173794e-07	2.500236254385804e-07	3.294030264620702e-07	1.162009351476016e-07	-4.761885254164554e-07	-2.080357307913598e-07	-1.295428890952968e-08
0.03	-0.04420828363051014	0.07006072661383092	0.8957332375362195	0.1998254596914473	-0.3215389583479531	-0.5108657995445697	-0.1390612969175803	0.07485479862667996	0.0748547986266878	-0.1741291826067927	-0.1457199872479921	-0.06524399789932542	0.005591688251056437	-0.08306956242393812	-0.02409458401172828	-0.02359884089107203	0.2826839842612596	-0.0663910929241074	0.107827560243617	-0.07505377013106261	0.3092460564281155	0.3092460564281165	0.02673783458058429	-0.01305617175881634	0.116164057641369	-0.009483360712574556	0.09692938663856357	-0.1262354161248417	-0.03720986760183768	-0.254803952374776	0.2366288340655771	-0.003376079453124996	-0.03834178826435022	41.01191205469173	-9.096076273552086	4.976638882837336	-26.74748567287918	-517.7823591287167	-92.97280798110062	-40.7762311739348	-2.57914390500701	-0.7690275620319023	-0.7657223920354991	8.921533864595927	-2.092385559952965	3.481303339292735	-2.364583136769502	9.792791877369508	9.79279187736941	0.8410486696178318	-0.3482246868021911	3.675563736064385	-0.2938387323865024	-1.776318115333878e-07	2.60510358742458e-07	4.011876261208521e-07	1.448936065436597e-07	-6.436772355694663e-07	-2.657710851794923e-07	-1.849058528413042e-08
0.04	-0.04516983705111024	0.06978152522481013	0.8954585125468012	0.2031005390517746	-0.3223066552906728	-0.5096163216371108	-0.1399244442821217	0.0784369575745882	0.07843695757458796	-0.1738187902206114	-0.1458706524294744	-0.06389853908383218	0.00548308291419838	-0.1090960861400096	-0.03171006493892115	-0.03134153062992465	0.3719054879825368	-0.08701984465557987	0.1419204606993007	-0.09736190169706896	0.4067084996520812	0.4067084996520807	0.03530210266133094	-0.01703598874302252	0.1527453548931445	-0.01220001020219934	0.09218043972699727	-0.1198845023815587	-0.03617805056193953	-0.2484959069806301	0.2288596644350862	-0.004126648472325333	-0.03454111319436862	38.56243445989381	-8.488538963043901	5.048057264942331	-25.3165666152557	-516.9823518532911	-90.92338227554329	-40.84201160092259	-2.693144491577817	-0.7573246395607447	-0.792557796909102	9.051355173819525	-2.042244049505631	3.309610291164063	-2.027413520395174	9.796314054242957	9.796314054242854	0.8985775593869275	-0.5098293445078336	3.67797639765882	-0.2384741543886328	-2.116748492668796e-07	2.701935153913753e-07	4.726700411711389e-07	1.732869101317158e-07	-8.100927120577121e-07	-3.233869647488315e-07	-2.407304411553083e-08
0.05	-0.04638788145634042	0.06942723503123449	0.8951062257117535	0.2072562170595292	-0.3232767928911132	-0.5080308499307979	-0.1410037406710078	0.0829802987241421	0.08298029872414019	-0.1734238044565093	-0.1460606729254932	-0.06219242692465273	0.005348594064902273	-0.1343647500596383	-0.03911039541720827	-0.0391275000582131	0.4588087415645639	-0.106868081495479	0.1750275449143448	-0.118294091003344	0.5014812049272029	0.5014812049272046	0.04365220785803568	-0.02092393996326832	0.1882938542534887	-0.01464998351202213	0.08720780252856856	-0.115457155971627	-0.03508947429081943	-0.2426522354644345	0.220155205998615	-0.002948055672332357	-0.03061865201064522	35.86518423288159	-8.619392114687015	5.173158243531986	-23.77875414514083	-516.4324239660066	-90.57079979969279	-40.9226790024439	-2.42153827241266	-0.725715611362738	-0.7735294308932995	8.446573400029321	-1.93526365801319	3.289246152954256	-2.095628874177985	9.245974824167819	9.245974824168204	0.7969055818258958	-0.3215952163307768	3.465794939855847	-0.2411874622342124	-2.325277187161701e-07	2.556169414836201e-07	5.196107724063873e-07	1.889405280702957e-07	-9.186961055336769e-07	-3.647824030810036e-07	-2.927490016182252e-08
0.06	-0.04785417468681882	0.06900007586099585	0.8946756965994022	0.212268280193031	-0.324441242891309	-0.5061187096490791	-0.1422862604006435	0.08845701213845028	0.08845701213845003	-0.1729465819240396	-0.1462882363748263	-0.06013632812494312	0.005191019773916942	-0.1587458511895549	-0.04628386027151989	-0.04698998609068195	0.5431825131319894	-0.1258823246066236	0.2072541757805752	-0.1380065698469873	0.5933829526031664	0.5933829526031709	0.05174945633528638	-0.02454457940542757	0.2227426829991774	-0.01681709854004945	0.08223516533014588	-0.1110298095616945	-0.03400089801968747	-0.2368085639482359	0.2114507475621465	-0.001769462872336955	-0.0266961908269193	33.22566430726968	-8.758541687474768	5.297513717198771	-22.44057656170048	-515.0780035228107	-90.05678320668159	-41.01588194932196	-2.515631933635371	-0.7119515147656678	-0.8078611177451814	8.545458770899222	-1.875445303754717	3.133519621401321	-1.783471427868807	9.222122534411353	9.222122534411334	0.8480062154961245	-0.4563669888905285	3.458042274727692	-0.1819024980295517	-2.528252126587574e-07	2.400189052366366e-07	5.655181695862656e-07	2.040577381920555e-07	-1.024865306040704e-06	-4.054948754663475e-07	-3.446073082768858e-08
0.07000000000000001	-0.04956052804694449	0.06850233469303824	0.8941659336592473	0.2181127651336197	-0.325791726240772	-0.503889187065739	-0.1437592307652609	0.09483943873672568	0.09483943873672733	-0.1723895507622789	-0.1465515115624386	-0.05774081823278764	0.005013345793091812	-0.1823784159515258	-0.05322166155690659	-0.05498721284005849	0.6252965701592802	-0.1440688545013588	0.2385050982047735	-0.1563955608837884	0.6826245667100662	0.6826245667100683	0.05960592323059326	-0.02806408640301326	0.2561792084424958	-0.01866285452796073	0.07726180198331269	-0.1062210696016088	-0.0329494628895405	-0.2318187997444928	0.2036673331629282	-0.001050569974401561	-0.02280220393946863	30.84097317012633	-8.745368668641117	5.40067511837639	-21.1427244371883	-514.0360083636576	-89.20270167884408	-41.11897397347163	-2.265123341837063	-0.6782466762460628	-0.7995513484601681	7.981661124888109	-1.768526922780803	3.099015393349742	-1.837821612633492	8.703517752539398	8.703517752539087	0.7469499222259782	-0.2927124069528014	3.259433588151504	-0.1777859135516177	-2.62813003635049e-07	1.933290563351482e-07	5.946875117901277e-07	2.062478615981181e-07	-1.079629654968157e-06	-4.374078495095779e-07	-4.118025409836669e-08
0.08	-0.05149881797356205	0.06793650506406247	0.8935754188726135	0.2247658470357289	-0.3273197289072718	-0.501351527890072	-0.1454103327744559	0.1020999488568139	0.1020999488568137	-0.1717554583324255	-0.1468485757903755	-0.05501634790439546	0.004818839499511644	-0.2051331644878574	-0.05990155247514903	-0.06314035538648302	0.7049019054363337	-0.1613861880140091	0.268881494245798	-0.1736328987624945	0.7689996569653708	0.7689996569653711	0.06716170995302009	-0.03130238747100817	0.2885347702465178	-0.02018356109106039	0.07228843863646771	-0.1014123296415249	-0.03189802775941557	-0.2268290355407525	0.1958839187637075	-0.0003316770764690423	-0.01890821705202435	28.50793880948718	-8.738318654069298	5.501476218696709	-20.02182503148761	-512.2751179398624	-88.20450988915901	-41.22912729020268	-2.340068688507458	-0.6603694413368371	-0.8390442771547805	8.043714420851726	-1.701606027337746	2.958614344766569	-1.553140796249784	8.648817764092348	8.648817764092366	0.7878701809201168	-0.400125802972379	3.241849546868409	-0.1168926130672437	-2.721356524844828e-07	1.446332840365951e-07	6.227769794794081e-07	2.076039794096195e-07	-1.131077561858219e-06	-4.687531139823493e-07	-4.799872527903266e-08
0.09	-0.05366097089546992	0.06730516587407638	0.8929023994330512	0.2322038230612095	-0.3290166558540328	-0.4985149802645882	-0.1472274258621236	0.1102109940685354	0.1102109940685355	-0.1710471885225401	-0.1471775177852402	-0.05197329949643199	0.004610877553022254	-0.227152170580799	-0.06632013302634922	-0.07149762754269942	0.7822798904409958	-0.1778493133288655	0.298283996051652	-0.1896027110167885	0.8527340332993948	0.8527340332993952	0.07443751726491861	-0.03443900354973547	0.3198970459908224	-0.02134857886315923	0.06726633884686044	-0.0968569882647209	-0.03086626079943723	-0.2225040176358099	0.1884330134799151	0.0006006288151803634	-0.01499905726856369	26.26325758331067	-8.826434996013406	5.60261228591474	-18.89308317365853	-510.8764443493498	-87.440526528441	-41.34334561590357	-2.111039932794033	-0.6256379450125378	-0.839409984353937	7.522799880200768	-1.596268405492919	2.909372749788079	-1.591450276836789	8.164454466069907	8.164454466069902	0.6893270388395257	-0.2632881622482736	3.05672322715052	-0.1073601067182343	-2.725144629567548e-07	7.014109639336265e-08	6.33187954992864e-07	1.9803431266763e-07	-1.140773297271002e-06	-4.907037076485752e-07	-5.576309201493229e-08
